<mxfile host="app.diagrams.net" agent="Mozilla/5.0 (Windows NT 10.0; Win64; x64; rv:129.0) Gecko/20100101 Firefox/129.0" version="24.7.7">
  <diagram name="PÃ¡gina-1" id="iKIY9vWfs-jN_fwZZrem">
    <mxGraphModel dx="1434" dy="734" grid="1" gridSize="10" guides="1" tooltips="1" connect="1" arrows="1" fold="1" page="1" pageScale="1" pageWidth="827" pageHeight="1169" math="0" shadow="0">
      <root>
        <mxCell id="0" />
        <mxCell id="1" parent="0" />
        <mxCell id="BPzGfDsp7cE46PtEeTVO-17" style="edgeStyle=orthogonalEdgeStyle;rounded=0;orthogonalLoop=1;jettySize=auto;html=1;entryX=0;entryY=0.5;entryDx=0;entryDy=0;" edge="1" parent="1" source="BPzGfDsp7cE46PtEeTVO-1" target="BPzGfDsp7cE46PtEeTVO-16">
          <mxGeometry relative="1" as="geometry">
            <Array as="points">
              <mxPoint x="180" y="310" />
              <mxPoint x="180" y="195" />
            </Array>
          </mxGeometry>
        </mxCell>
        <mxCell id="BPzGfDsp7cE46PtEeTVO-19" style="edgeStyle=orthogonalEdgeStyle;rounded=0;orthogonalLoop=1;jettySize=auto;html=1;" edge="1" parent="1" source="BPzGfDsp7cE46PtEeTVO-1" target="BPzGfDsp7cE46PtEeTVO-18">
          <mxGeometry relative="1" as="geometry" />
        </mxCell>
        <mxCell id="BPzGfDsp7cE46PtEeTVO-21" style="edgeStyle=orthogonalEdgeStyle;rounded=0;orthogonalLoop=1;jettySize=auto;html=1;entryX=0;entryY=0.5;entryDx=0;entryDy=0;" edge="1" parent="1" source="BPzGfDsp7cE46PtEeTVO-1" target="BPzGfDsp7cE46PtEeTVO-20">
          <mxGeometry relative="1" as="geometry">
            <Array as="points">
              <mxPoint x="180" y="310" />
              <mxPoint x="180" y="435" />
            </Array>
          </mxGeometry>
        </mxCell>
        <mxCell id="BPzGfDsp7cE46PtEeTVO-1" value="&lt;div&gt;Usuario&lt;/div&gt;" style="shape=umlActor;verticalLabelPosition=bottom;verticalAlign=top;html=1;outlineConnect=0;" vertex="1" parent="1">
          <mxGeometry x="60" y="280" width="30" height="60" as="geometry" />
        </mxCell>
        <mxCell id="BPzGfDsp7cE46PtEeTVO-16" value="Realizar login" style="ellipse;whiteSpace=wrap;html=1;" vertex="1" parent="1">
          <mxGeometry x="260" y="160" width="140" height="70" as="geometry" />
        </mxCell>
        <mxCell id="BPzGfDsp7cE46PtEeTVO-18" value="Recuperar a senha" style="ellipse;whiteSpace=wrap;html=1;" vertex="1" parent="1">
          <mxGeometry x="260" y="275" width="140" height="70" as="geometry" />
        </mxCell>
        <mxCell id="BPzGfDsp7cE46PtEeTVO-20" value="Cadastrar" style="ellipse;whiteSpace=wrap;html=1;" vertex="1" parent="1">
          <mxGeometry x="260" y="400" width="140" height="70" as="geometry" />
        </mxCell>
        <mxCell id="BPzGfDsp7cE46PtEeTVO-26" style="edgeStyle=orthogonalEdgeStyle;rounded=0;orthogonalLoop=1;jettySize=auto;html=1;" edge="1" parent="1" source="BPzGfDsp7cE46PtEeTVO-22" target="BPzGfDsp7cE46PtEeTVO-1">
          <mxGeometry relative="1" as="geometry">
            <Array as="points">
              <mxPoint x="20" y="550" />
              <mxPoint x="20" y="310" />
            </Array>
          </mxGeometry>
        </mxCell>
        <mxCell id="BPzGfDsp7cE46PtEeTVO-28" style="edgeStyle=orthogonalEdgeStyle;rounded=0;orthogonalLoop=1;jettySize=auto;html=1;" edge="1" parent="1" source="BPzGfDsp7cE46PtEeTVO-22" target="BPzGfDsp7cE46PtEeTVO-27">
          <mxGeometry relative="1" as="geometry" />
        </mxCell>
        <mxCell id="BPzGfDsp7cE46PtEeTVO-22" value="Secretaria" style="shape=umlActor;verticalLabelPosition=bottom;verticalAlign=top;html=1;" vertex="1" parent="1">
          <mxGeometry x="60" y="525" width="30" height="60" as="geometry" />
        </mxCell>
        <mxCell id="BPzGfDsp7cE46PtEeTVO-27" value="Permitir cadastro" style="ellipse;whiteSpace=wrap;html=1;" vertex="1" parent="1">
          <mxGeometry x="260" y="520" width="140" height="70" as="geometry" />
        </mxCell>
      </root>
    </mxGraphModel>
  </diagram>
</mxfile>
